<svg xmlns="http://www.w3.org/2000/svg" viewBox="0 0 480 150" preserveAspectRatio="xMidYMid slice" role="img" aria-label="Survey plate: uniform parallel tracking lines"><g class="pl-c" fill="none" stroke="#1E2833" stroke-width="var(--pl-w,1)" stroke-opacity="var(--pl-ink,.5)" stroke-linecap="round"><path d="M0.0 9.6L135.0 13.3L247.5 14.8L360.0 14.2L480.0 11.7"/><path d="M0.0 26.3L135.0 30.0L247.5 31.4L360.0 30.9L480.0 28.4"/><path d="M0.0 43.0L135.0 46.7L247.5 48.1L360.0 47.6L480.0 45.0"/><path d="M0.0 59.6L135.0 63.3L247.5 64.8L360.0 64.2L480.0 61.7"/><path d="M0.0 76.3L135.0 80.0L247.5 81.4L360.0 80.9L480.0 78.4"/><path d="M0.0 93.0L135.0 96.7L247.5 98.1L360.0 97.6L480.0 95.0"/><path d="M0.0 109.6L135.0 113.3L247.5 114.8L360.0 114.2L480.0 111.7"/><path d="M0.0 126.3L135.0 130.0L247.5 131.4L360.0 130.9L480.0 128.4"/><path d="M0.0 143.0L135.0 146.7L247.5 148.1L360.0 147.6L480.0 145.0"/></g><g class="pl-s1" fill="#1E2833" fill-opacity="calc(1 * var(--pl-sound,.34))"><circle cx="43" cy="10" r="0.75"/><circle cx="59" cy="7" r="0.75"/><circle cx="80" cy="13" r="0.75"/><circle cx="128" cy="8" r="0.75"/><circle cx="186" cy="16" r="0.75"/><circle cx="208" cy="19" r="0.75"/><circle cx="222" cy="16" r="0.75"/><circle cx="251" cy="17" r="0.75"/><circle cx="280" cy="14" r="0.75"/><circle cx="341" cy="11" r="0.75"/><circle cx="359" cy="15" r="0.75"/><circle cx="453" cy="18" r="0.75"/><circle cx="51" cy="30" r="0.75"/><circle cx="68" cy="26" r="0.75"/><circle cx="140" cy="30" r="0.75"/><circle cx="153" cy="27" r="0.75"/><circle cx="168" cy="27" r="0.75"/><circle cx="189" cy="27" r="0.75"/><circle cx="247" cy="26" r="0.75"/><circle cx="265" cy="29" r="0.75"/><circle cx="272" cy="30" r="0.75"/><circle cx="303" cy="33" r="0.75"/><circle cx="326" cy="29" r="0.75"/><circle cx="365" cy="36" r="0.75"/><circle cx="380" cy="25" r="0.75"/><circle cx="397" cy="30" r="0.75"/><circle cx="438" cy="32" r="0.75"/><circle cx="35" cy="45" r="0.75"/><circle cx="62" cy="45" r="0.75"/><circle cx="105" cy="40" r="0.75"/><circle cx="123" cy="47" r="0.75"/><circle cx="184" cy="46" r="0.75"/><circle cx="196" cy="46" r="0.75"/><circle cx="251" cy="49" r="0.75"/><circle cx="269" cy="51" r="0.75"/><circle cx="283" cy="43" r="0.75"/><circle cx="390" cy="45" r="0.75"/><circle cx="452" cy="41" r="0.75"/><circle cx="18" cy="59" r="0.75"/><circle cx="141" cy="65" r="0.75"/><circle cx="175" cy="59" r="0.75"/><circle cx="208" cy="66" r="0.75"/><circle cx="291" cy="70" r="0.75"/><circle cx="322" cy="62" r="0.75"/><circle cx="430" cy="64" r="0.75"/><circle cx="471" cy="59" r="0.75"/><circle cx="34" cy="73" r="0.75"/><circle cx="66" cy="73" r="0.75"/><circle cx="143" cy="77" r="0.75"/><circle cx="283" cy="82" r="0.75"/><circle cx="294" cy="86" r="0.75"/><circle cx="332" cy="79" r="0.75"/><circle cx="370" cy="82" r="0.75"/><circle cx="433" cy="74" r="0.75"/><circle cx="24" cy="95" r="0.75"/><circle cx="92" cy="95" r="0.75"/><circle cx="139" cy="97" r="0.75"/><circle cx="167" cy="101" r="0.75"/><circle cx="222" cy="92" r="0.75"/><circle cx="238" cy="98" r="0.75"/><circle cx="269" cy="98" r="0.75"/><circle cx="361" cy="92" r="0.75"/><circle cx="449" cy="93" r="0.75"/><circle cx="88" cy="117" r="0.75"/><circle cx="143" cy="110" r="0.75"/><circle cx="199" cy="109" r="0.75"/><circle cx="263" cy="112" r="0.75"/><circle cx="291" cy="113" r="0.75"/><circle cx="352" cy="117" r="0.75"/><circle cx="397" cy="119" r="0.75"/><circle cx="399" cy="110" r="0.75"/><circle cx="477" cy="114" r="0.75"/><circle cx="28" cy="130" r="0.75"/><circle cx="43" cy="125" r="0.75"/><circle cx="79" cy="124" r="0.75"/><circle cx="149" cy="132" r="0.75"/><circle cx="166" cy="128" r="0.75"/><circle cx="205" cy="130" r="0.75"/><circle cx="299" cy="134" r="0.75"/><circle cx="332" cy="132" r="0.75"/><circle cx="402" cy="128" r="0.75"/><circle cx="440" cy="123" r="0.75"/><circle cx="457" cy="129" r="0.75"/><circle cx="31" cy="142" r="0.75"/><circle cx="111" cy="146" r="0.75"/><circle cx="124" cy="150" r="0.75"/><circle cx="155" cy="144" r="0.75"/><circle cx="175" cy="144" r="0.75"/><circle cx="267" cy="149" r="0.75"/><circle cx="287" cy="147" r="0.75"/><circle cx="344" cy="144" r="0.75"/><circle cx="370" cy="149" r="0.75"/><circle cx="391" cy="149" r="0.75"/></g><g class="pl-s2" fill="#1E2833" fill-opacity="calc(var(--pl-s2,1) * var(--pl-sound,.34))"><circle cx="20" cy="16" r="0.85"/><circle cx="26" cy="7" r="0.85"/><circle cx="83" cy="16" r="0.85"/><circle cx="146" cy="11" r="0.85"/><circle cx="161" cy="10" r="0.85"/><circle cx="190" cy="12" r="0.85"/><circle cx="234" cy="19" r="0.85"/><circle cx="298" cy="13" r="0.85"/><circle cx="334" cy="20" r="0.85"/><circle cx="370" cy="10" r="0.85"/><circle cx="414" cy="14" r="0.85"/><circle cx="442" cy="9" r="0.85"/><circle cx="18" cy="29" r="0.85"/><circle cx="80" cy="33" r="0.85"/><circle cx="94" cy="30" r="0.85"/><circle cx="116" cy="34" r="0.85"/><circle cx="125" cy="30" r="0.85"/><circle cx="220" cy="29" r="0.85"/><circle cx="292" cy="35" r="0.85"/><circle cx="429" cy="28" r="0.85"/><circle cx="459" cy="28" r="0.85"/><circle cx="5" cy="42" r="0.85"/><circle cx="18" cy="47" r="0.85"/><circle cx="43" cy="42" r="0.85"/><circle cx="76" cy="49" r="0.85"/><circle cx="84" cy="47" r="0.85"/><circle cx="128" cy="41" r="0.85"/><circle cx="146" cy="43" r="0.85"/><circle cx="169" cy="50" r="0.85"/><circle cx="215" cy="45" r="0.85"/><circle cx="244" cy="47" r="0.85"/><circle cx="303" cy="50" r="0.85"/><circle cx="315" cy="47" r="0.85"/><circle cx="377" cy="53" r="0.85"/><circle cx="408" cy="49" r="0.85"/><circle cx="416" cy="45" r="0.85"/><circle cx="468" cy="42" r="0.85"/><circle cx="475" cy="43" r="0.85"/><circle cx="5" cy="56" r="0.85"/><circle cx="39" cy="58" r="0.85"/><circle cx="68" cy="68" r="0.85"/><circle cx="96" cy="58" r="0.85"/><circle cx="115" cy="57" r="0.85"/><circle cx="132" cy="63" r="0.85"/><circle cx="153" cy="61" r="0.85"/><circle cx="183" cy="59" r="0.85"/><circle cx="236" cy="67" r="0.85"/><circle cx="268" cy="66" r="0.85"/><circle cx="279" cy="70" r="0.85"/><circle cx="305" cy="60" r="0.85"/><circle cx="333" cy="61" r="0.85"/><circle cx="346" cy="62" r="0.85"/><circle cx="364" cy="69" r="0.85"/><circle cx="416" cy="67" r="0.85"/><circle cx="440" cy="63" r="0.85"/><circle cx="13" cy="74" r="0.85"/><circle cx="41" cy="72" r="0.85"/><circle cx="88" cy="79" r="0.85"/><circle cx="104" cy="80" r="0.85"/><circle cx="133" cy="82" r="0.85"/><circle cx="167" cy="78" r="0.85"/><circle cx="179" cy="85" r="0.85"/><circle cx="206" cy="82" r="0.85"/><circle cx="240" cy="80" r="0.85"/><circle cx="276" cy="80" r="0.85"/><circle cx="318" cy="80" r="0.85"/><circle cx="347" cy="77" r="0.85"/><circle cx="405" cy="85" r="0.85"/><circle cx="445" cy="82" r="0.85"/><circle cx="58" cy="100" r="0.85"/><circle cx="122" cy="100" r="0.85"/><circle cx="284" cy="101" r="0.85"/><circle cx="291" cy="96" r="0.85"/><circle cx="328" cy="104" r="0.85"/><circle cx="359" cy="92" r="0.85"/><circle cx="400" cy="93" r="0.85"/><circle cx="415" cy="99" r="0.85"/><circle cx="10" cy="115" r="0.85"/><circle cx="28" cy="105" r="0.85"/><circle cx="46" cy="114" r="0.85"/><circle cx="62" cy="115" r="0.85"/><circle cx="71" cy="117" r="0.85"/><circle cx="107" cy="113" r="0.85"/><circle cx="136" cy="108" r="0.85"/><circle cx="185" cy="117" r="0.85"/><circle cx="213" cy="110" r="0.85"/><circle cx="222" cy="117" r="0.85"/><circle cx="250" cy="116" r="0.85"/><circle cx="294" cy="117" r="0.85"/><circle cx="319" cy="109" r="0.85"/><circle cx="329" cy="110" r="0.85"/><circle cx="378" cy="110" r="0.85"/><circle cx="420" cy="117" r="0.85"/><circle cx="435" cy="117" r="0.85"/><circle cx="444" cy="115" r="0.85"/><circle cx="458" cy="114" r="0.85"/><circle cx="10" cy="126" r="0.85"/><circle cx="46" cy="134" r="0.85"/><circle cx="62" cy="122" r="0.85"/><circle cx="104" cy="123" r="0.85"/><circle cx="107" cy="135" r="0.85"/><circle cx="129" cy="130" r="0.85"/><circle cx="226" cy="127" r="0.85"/><circle cx="243" cy="135" r="0.85"/><circle cx="263" cy="135" r="0.85"/><circle cx="314" cy="126" r="0.85"/><circle cx="326" cy="135" r="0.85"/><circle cx="359" cy="128" r="0.85"/><circle cx="416" cy="133" r="0.85"/><circle cx="476" cy="127" r="0.85"/><circle cx="50" cy="142" r="0.85"/><circle cx="205" cy="149" r="0.85"/><circle cx="318" cy="144" r="0.85"/><circle cx="356" cy="145" r="0.85"/><circle cx="434" cy="141" r="0.85"/><circle cx="470" cy="142" r="0.85"/><circle cx="128" cy="121" r="0.85"/><circle cx="469" cy="135" r="0.85"/><circle cx="18" cy="107" r="0.85"/><circle cx="131" cy="53" r="0.85"/><circle cx="206" cy="123" r="0.85"/><circle cx="434" cy="67" r="0.85"/><circle cx="333" cy="50" r="0.85"/><circle cx="444" cy="149" r="0.85"/><circle cx="145" cy="72" r="0.85"/><circle cx="41" cy="133" r="0.85"/><circle cx="121" cy="61" r="0.85"/><circle cx="66" cy="133" r="0.85"/><circle cx="214" cy="47" r="0.85"/><circle cx="171" cy="63" r="0.85"/><circle cx="269" cy="112" r="0.85"/><circle cx="168" cy="98" r="0.85"/><circle cx="413" cy="3" r="0.85"/><circle cx="24" cy="143" r="0.85"/><circle cx="412" cy="59" r="0.85"/><circle cx="5" cy="37" r="0.85"/><circle cx="34" cy="15" r="0.85"/><circle cx="14" cy="121" r="0.85"/><circle cx="454" cy="32" r="0.85"/><circle cx="79" cy="32" r="0.85"/><circle cx="409" cy="31" r="0.85"/><circle cx="21" cy="17" r="0.85"/><circle cx="79" cy="46" r="0.85"/><circle cx="77" cy="14" r="0.85"/><circle cx="99" cy="105" r="0.85"/><circle cx="257" cy="145" r="0.85"/><circle cx="394" cy="1" r="0.85"/><circle cx="318" cy="43" r="0.85"/><circle cx="441" cy="44" r="0.85"/><circle cx="2" cy="104" r="0.85"/></g><g class="pl-s3" fill="#1E2833" fill-opacity="calc(var(--pl-s3,1) * var(--pl-sound,.34))"><circle cx="107" cy="14" r="1.3"/><circle cx="119" cy="13" r="1.3"/><circle cx="266" cy="14" r="1.3"/><circle cx="319" cy="10" r="1.3"/><circle cx="387" cy="16" r="1.3"/><circle cx="399" cy="11" r="1.3"/><circle cx="459" cy="12" r="1.3"/><circle cx="8" cy="27" r="1.3"/><circle cx="35" cy="29" r="1.3"/><circle cx="207" cy="30" r="1.3"/><circle cx="236" cy="34" r="1.3"/><circle cx="341" cy="31" r="1.3"/><circle cx="355" cy="37" r="1.3"/><circle cx="414" cy="26" r="1.3"/><circle cx="477" cy="27" r="1.3"/><circle cx="221" cy="49" r="1.3"/><circle cx="329" cy="46" r="1.3"/><circle cx="349" cy="47" r="1.3"/><circle cx="357" cy="49" r="1.3"/><circle cx="432" cy="52" r="1.3"/><circle cx="51" cy="62" r="1.3"/><circle cx="83" cy="61" r="1.3"/><circle cx="221" cy="62" r="1.3"/><circle cx="247" cy="61" r="1.3"/><circle cx="383" cy="68" r="1.3"/><circle cx="398" cy="67" r="1.3"/><circle cx="459" cy="59" r="1.3"/><circle cx="75" cy="84" r="1.3"/><circle cx="122" cy="76" r="1.3"/><circle cx="201" cy="81" r="1.3"/><circle cx="228" cy="76" r="1.3"/><circle cx="258" cy="81" r="1.3"/><circle cx="356" cy="82" r="1.3"/><circle cx="387" cy="81" r="1.3"/><circle cx="416" cy="83" r="1.3"/><circle cx="471" cy="74" r="1.3"/><circle cx="10" cy="89" r="1.3"/><circle cx="32" cy="97" r="1.3"/><circle cx="67" cy="97" r="1.3"/><circle cx="79" cy="100" r="1.3"/><circle cx="109" cy="97" r="1.3"/><circle cx="164" cy="100" r="1.3"/><circle cx="188" cy="98" r="1.3"/><circle cx="206" cy="93" r="1.3"/><circle cx="250" cy="92" r="1.3"/><circle cx="302" cy="99" r="1.3"/><circle cx="344" cy="99" r="1.3"/><circle cx="385" cy="99" r="1.3"/><circle cx="424" cy="94" r="1.3"/><circle cx="452" cy="94" r="1.3"/><circle cx="474" cy="94" r="1.3"/><circle cx="4" cy="108" r="1.3"/><circle cx="123" cy="118" r="1.3"/><circle cx="165" cy="116" r="1.3"/><circle cx="246" cy="119" r="1.3"/><circle cx="365" cy="113" r="1.3"/><circle cx="159" cy="130" r="1.3"/><circle cx="194" cy="129" r="1.3"/><circle cx="224" cy="135" r="1.3"/><circle cx="273" cy="132" r="1.3"/><circle cx="373" cy="134" r="1.3"/><circle cx="383" cy="127" r="1.3"/><circle cx="430" cy="127" r="1.3"/><circle cx="14" cy="138" r="1.3"/><circle cx="66" cy="140" r="1.3"/><circle cx="94" cy="144" r="1.3"/><circle cx="139" cy="141" r="1.3"/><circle cx="166" cy="145" r="1.3"/><circle cx="242" cy="145" r="1.3"/><circle cx="254" cy="146" r="1.3"/><circle cx="299" cy="148" r="1.3"/><circle cx="328" cy="142" r="1.3"/><circle cx="417" cy="150" r="1.3"/><circle cx="446" cy="143" r="1.3"/><circle cx="479" cy="142" r="1.3"/><circle cx="297" cy="52" r="1.3"/><circle cx="289" cy="8" r="1.3"/><circle cx="91" cy="71" r="1.3"/><circle cx="464" cy="107" r="1.3"/><circle cx="35" cy="85" r="1.3"/><circle cx="466" cy="15" r="1.3"/><circle cx="89" cy="101" r="1.3"/><circle cx="477" cy="135" r="1.3"/><circle cx="37" cy="116" r="1.3"/><circle cx="458" cy="114" r="1.3"/><circle cx="141" cy="47" r="1.3"/><circle cx="278" cy="71" r="1.3"/><circle cx="253" cy="134" r="1.3"/><circle cx="224" cy="117" r="1.3"/><circle cx="69" cy="53" r="1.3"/><circle cx="114" cy="62" r="1.3"/><circle cx="473" cy="101" r="1.3"/><circle cx="57" cy="139" r="1.3"/><circle cx="288" cy="141" r="1.3"/><circle cx="39" cy="100" r="1.3"/><circle cx="323" cy="104" r="1.3"/><circle cx="402" cy="90" r="1.3"/><circle cx="332" cy="108" r="1.3"/><circle cx="234" cy="105" r="1.3"/><circle cx="116" cy="26" r="1.3"/><circle cx="453" cy="89" r="1.3"/><circle cx="63" cy="94" r="1.3"/><circle cx="399" cy="74" r="1.3"/><circle cx="435" cy="23" r="1.3"/><circle cx="460" cy="148" r="1.3"/><circle cx="116" cy="84" r="1.3"/><circle cx="184" cy="129" r="1.3"/><circle cx="137" cy="78" r="1.3"/><circle cx="66" cy="135" r="1.3"/><circle cx="320" cy="102" r="1.3"/><circle cx="145" cy="74" r="1.3"/><circle cx="135" cy="43" r="1.3"/><circle cx="301" cy="46" r="1.3"/></g></svg>